<!-- SPDX-FileCopyrightText: 2026 True Positive LLC -->
<!-- SPDX-License-Identifier: GPL-3.0-only -->
<!-- semicolyn brand mark: coral shell-prompt chevron fused with an off-white
     comma; comma centred horizontally, chevron offset up-right. Two paths. -->
<svg xmlns="http://www.w3.org/2000/svg" viewBox="0 0 2048 2048" width="1024" height="1024">
  <g transform="translate(1149.2,784.8) scale(1.0398)">
    <g transform="translate(-1152.4,-1023.6)"><path d="M 958.5 665.431 C 986.7 665.062 1014.9 664.954 1043.11 665.108 C 1070.21 665.119 1102.42 662.754 1127.64 673.325 C 1154.9 684.746 1171.09 711.797 1188.46 734.306 L 1260.08 828.296 L 1331.12 920.969 C 1349.38 944.486 1368.61 967.294 1385.85 991.572 C 1415.35 1033.1 1381.43 1062.72 1357.62 1093.57 C 1333.08 1125.94 1308.22 1158.06 1283.04 1189.93 C 1254.66 1227.14 1226.02 1264.15 1197.12 1300.96 C 1170.19 1335.38 1155.52 1364.48 1112.25 1379.31 C 1094.94 1383.84 1080.6 1383.17 1062.85 1383.2 L 1007.55 1383.24 C 993.715 1383.25 953.874 1384.38 941.787 1382.55 C 933.724 1381.32 926.074 1378.17 919.48 1373.37 C 900.024 1359.23 893.946 1332.67 906.119 1312.16 C 913.782 1299.25 922.877 1287.92 931.909 1275.98 C 949.112 1253.15 966.575 1230.52 984.293 1208.09 L 1123.38 1026.39 L 982.374 840.397 C 957.724 808.131 932.077 776.925 909.158 743.359 C 889.431 714.467 903.329 678.563 936.31 668.267 C 944.301 665.773 950.23 665.763 958.5 665.431 z" fill="#FF6F5E"/></g>
    <g transform="translate(-902.6,-568.2)"><path d="M 734.916 958.456 C 756.316 958.306 777.717 958.296 799.117 958.427 C 812.399 958.466 833.656 957.86 845.855 960.269 C 867.842 964.789 887.168 977.777 899.658 996.428 C 905.727 1005.66 909.788 1016.06 911.574 1026.96 C 913.781 1040.1 913.139 1075.58 912.925 1091.4 C 912.545 1119.4 915.1 1154.62 911.093 1181.87 C 907.563 1202.27 893.858 1217.37 881.846 1233.23 C 841.554 1286.44 789.503 1329.7 734.095 1366.38 C 717.43 1377.42 700.294 1389.16 679.485 1384.76 C 665.022 1378.81 657.256 1368.09 656.732 1352.33 C 655.921 1327.9 672.091 1320.87 690.119 1310.67 C 733.98 1285.85 774.816 1256.07 809.203 1219.13 C 793.675 1219.6 777.951 1219.17 762.417 1219.29 C 728.903 1219.54 702.839 1221.3 676.049 1197.33 C 659.539 1182.48 650.352 1158.33 649.882 1136.39 C 649.289 1108.69 650.332 1080.64 649.831 1052.95 C 649.356 1026.72 654.175 1004.4 672.713 984.843 C 690.901 965.657 709.218 959.42 734.916 958.456 z" fill="#CFD6E4"/></g>
  </g>
</svg>
